Coordinates
version=1
nRows=21
nColumns=19
inDegrees=yes

Units are S.I. units (second, meters, Newtons, ...)
If the header above contains a line with 'inDegrees', this indicates whether rotational values are in degrees (yes) or radians (no).

endheader
time	pelvis_tilt	pelvis_list	pelvis_rotation	pelvis_tx	pelvis_ty	pelvis_tz	hip_flexion_r	hip_adduction_r	hip_rotation_r	knee_angle_r	knee_angle_r_beta	ankle_angle_r	hip_flexion_l	hip_adduction_l	hip_rotation_l	knee_angle_l	knee_angle_l_beta	ankle_angle_l
     15.19333333	      0.50572030	    -11.05780580	     -1.67493532	      2.18148859	      1.05914465	      1.04138812	     15.41119574	     13.32617802	     -9.87581696	     12.69645595	      0.22159496	      0.52258013	    -16.53537268	    -19.85666328	    -26.99554539	     46.97374217	      0.81984646	    -11.68781369
     15.20000000	      1.01307782	    -11.48140571	     -1.80930789	      2.18105971	      1.05507107	      1.04224458	     15.51048477	     13.51318264	    -11.04905585	     15.47131038	      0.27002531	      1.00298382	    -16.33155997	    -20.69207864	    -26.41188917	     49.50111660	      0.86395747	    -10.77976049
     15.20666667	      1.99217399	    -12.11711939	     -2.02374092	      2.18059705	      1.05132540	      1.04305220	     14.86200468	     13.99058637	    -11.64054998	     17.96388363	      0.31352892	      1.69475381	    -16.74574619	    -21.67657180	    -26.14398381	     51.92544673	      0.90627001	     -9.84025185
     15.21333333	      2.86516912	    -12.70138910	     -2.18016487	      2.17992935	      1.04740118	      1.04379828	     14.31140208	     14.39002308	    -12.12360930	     20.53322808	      0.35837244	      2.66525793	    -16.88457989	    -22.60750422	    -25.64682507	     54.40005135	      0.94946001	     -9.02955172
     15.22000000	      3.05026462	    -13.05131673	     -2.35622947	      2.17893656	      1.04280447	      1.04464991	     14.54986326	     14.52819790	    -12.54512101	     23.25592809	      0.40589252	      3.87554887	    -15.96196226	    -23.32398143	    -24.66868600	     57.06460078	      0.99596517	     -8.19198378
     15.22666667	      3.53209705	    -13.57994729	     -2.54059902	      2.17789459	      1.03866127	      1.04548637	     14.24822296	     14.94531385	    -12.55420404	     25.59802181	      0.44676976	      5.28667216	    -15.39783423	    -24.18970552	    -23.86474155	     59.61137682	      1.04041480	     -7.34973795
     15.23333333	      4.26660876	    -14.16163906	     -2.75396408	      2.17672253	      1.03509623	      1.04632949	     13.48161387	     15.49922435	    -12.18841731	     27.60239515	      0.48175268	      6.92312029	    -15.12877493	    -25.06195835	    -23.21087700	     62.00849667	      1.08225243	     -6.54943567
     15.24000000	      4.04386173	    -14.63132573	     -2.87474223	      2.17537410	      1.03078916	      1.04722674	     13.77728198	     15.90623963	    -12.11284658	     29.59794110	      0.51658152	      8.49416732	    -13.38661296	    -25.89668913	    -21.83080455	     64.62562935	      1.12793001	     -5.66688136
     15.24666667	      4.47794034	    -15.11246187	     -3.09014474	      2.17389739	      1.02767768	      1.04810969	     13.14589886	     16.40137742	    -11.58154596	     31.24097260	      0.54525783	     10.12271225	    -12.53902082	    -26.61689926	    -20.89309256	     66.89255429	      1.16749532	     -4.80734017
     15.25333333	      4.57921397	    -15.54893903	     -3.23411136	      2.17244155	      1.02472976	      1.04893562	     12.73037547	     16.84665972	    -11.17965217	     32.58137421	      0.56865225	     11.77775946	    -11.12324597	    -27.29283053	    -19.65161171	     69.12012073	      1.20637369	     -3.90802810
     15.26000000	      3.53245298	    -15.73046547	     -3.21252372	      2.17073273	      1.02113521	      1.04963704	     13.56445623	     16.99852791	    -11.15834820	     33.77963122	      0.58956578	     13.14816438	     -7.85466384	    -27.72426898	    -17.44116422	     71.53847543	      1.24858194	     -3.09198022
     15.26666667	      3.10281395	    -15.88668482	     -3.25617098	      2.16911105	      1.01872125	      1.05022332	     13.51963311	     17.14339760	    -10.88193298	     34.66620568	      0.60503943	     14.48902015	     -5.46734303	    -27.98185238	    -15.68355072	     73.56387725	      1.28393187	     -2.24116646
     15.27333333	      3.01807493	    -16.04927646	     -3.20552254	      2.16754820	      1.01723771	      1.05066214	     12.91632239	     17.29105183	    -10.59006325	     35.19049736	      0.61419004	     15.61632482	     -3.46698450	    -28.15081760	    -13.99559307	     75.30023920	      1.31423710	     -1.42464933
     15.28000000	      2.21945631	    -15.98879200	     -2.98221872	      2.16603136	      1.01552444	      1.05081428	     13.02748966	     17.16376878	    -10.64325341	     35.52183098	      0.61997291	     16.60939124	     -0.32735800	    -28.04949666	    -11.82318152	     77.02986506	      1.34442477	     -0.69366991
     15.28666667	      1.89621897	    -15.89739945	     -2.80262356	      2.16467484	      1.01482420	      1.05091177	     12.42967838	     17.03445268	    -10.49359579	     35.55085189	      0.62047942	     17.45874156	      2.07658088	    -27.80486875	    -10.05092462	     78.38781999	      1.36812555	      0.02890761
     15.29333333	      1.73760258	    -15.73621061	     -2.49539993	      2.16341804	      1.01477463	      1.05081645	     11.52704028	     16.83299621	    -10.40551804	     35.31054460	      0.61628526	     18.08919548	      4.31668944	    -27.43164032	     -8.35539376	     79.50805464	      1.38767734	      0.65995594
     15.30000000	      1.54475249	    -15.48992224	     -2.19559705	      2.16234561	      1.01514399	      1.05070674	     10.53654779	     16.57758355	    -10.28544717	     34.85563177	      0.60834554	     18.58912815	      6.52522970	    -26.91838355	     -6.81301916	     80.39133640	      1.40309351	      1.24858935
     15.30666667	      1.33700607	    -15.15124104	     -1.90975117	      2.16143723	      1.01589044	      1.05050919	      9.45368630	     16.25119601	    -10.12968767	     34.20962969	      0.59707067	     18.94986543	      8.65617822	    -26.28095530	     -5.49431811	     81.04245244	      1.41445763	      1.78556848
     15.31333333	      1.20305412	    -14.73818655	     -1.65683882	      2.16070980	      1.01714728	      1.05038253	      8.18478586	     15.88748293	     -9.89322980	     33.39160250	      0.58279341	     19.14941631	     10.57179699	    -25.58201939	     -4.48003159	     81.42525201	      1.42113874	      2.26953763
     15.32000000	      1.04802799	    -14.17729411	     -1.74717746	      2.16015791	      1.01883300	      1.05061542	      6.84601832	     15.44836336	     -9.21946307	     32.51554689	      0.56750335	     19.23478508	     12.17177057	    -24.82475149	     -4.12663255	     81.51241586	      1.42266004	      2.76463777
     15.32666667	      0.87036755	    -13.57500717	     -1.66500989	      2.15984126	      1.02084179	      1.05061038	      5.47655424	     14.94065730	     -8.77539072	     31.46731860	      0.54920832	     19.11985868	     13.81439057	    -24.00508050	     -3.76616706	     81.38844818	      1.42049639	      3.17613605
